<svg width="56" height="64" viewBox="0 0 56 64" fill="none" xmlns="http://www.w3.org/2000/svg">
<path d="M56 0H0V63.2537H56V0Z" fill="white"/>
<path d="M11.2246 33.4791H8.03273V35.1666H11.5506L11.374 36.3459H6.62695V29.6973H11.3604V30.8765H8.03273V32.293H11.2246V33.4791Z" fill="#2F4A3C"/>
<path d="M12.4072 32.6131C12.4072 32.1861 12.4072 31.7252 12.4004 31.3457H13.745C13.7722 31.4812 13.7926 31.8269 13.8062 31.9828C13.9692 31.671 14.3766 31.2305 15.2595 31.2305C16.2646 31.2305 16.9165 31.915 16.9165 33.1688V36.3474H15.5311V33.3247C15.5311 32.7554 15.3478 32.3487 14.7298 32.3487C14.1118 32.3487 13.813 32.6741 13.813 33.5619V36.3406H12.4208V32.6063L12.4072 32.6131Z" fill="#2F4A3C"/>
<path d="M19.232 34.1506C19.232 34.7809 19.5512 35.3841 20.2371 35.3841C20.8144 35.3841 20.9842 35.1537 21.12 34.8555H22.5054C22.3288 35.4654 21.7787 36.4685 20.21 36.4685C18.5529 36.4685 17.8398 35.2418 17.8398 33.927C17.8398 32.3546 18.6412 31.2363 20.2575 31.2363C21.9689 31.2363 22.5597 32.4834 22.5597 33.7236C22.5597 33.8999 22.5597 34.0015 22.5393 34.1506H19.232ZM21.1675 33.2967C21.1607 32.7206 20.923 32.2258 20.2507 32.2258C19.5784 32.2258 19.3203 32.6799 19.266 33.2967H21.1743H21.1675Z" fill="#2F4A3C"/>
<path d="M23.5302 32.7079C23.5302 32.2064 23.5302 31.7727 23.5234 31.3457H24.8885C24.9088 31.4609 24.9292 31.9557 24.9292 32.2268C25.1533 31.6574 25.683 31.244 26.5319 31.2305V32.5521C25.5268 32.525 24.9292 32.7961 24.9292 34.1651V36.3474H23.537V32.7079H23.5302Z" fill="#2F4A3C"/>
<path d="M31.7884 35.7432C31.7884 37.3427 31.1976 38.3593 29.3029 38.3593C27.4081 38.3593 27.1161 37.3427 27.0686 36.7734H28.4811C28.5762 37.119 28.8275 37.3494 29.364 37.3494C30.2604 37.3494 30.437 36.8005 30.437 35.8245V35.5805C30.1789 36.0143 29.7579 36.2854 29.0244 36.2854C27.7069 36.2854 26.9531 35.201 26.9531 33.8591C26.9531 32.2935 27.8903 31.2227 29.1399 31.2227C30.0024 31.2227 30.3555 31.6293 30.437 31.8597C30.4438 31.7242 30.4845 31.426 30.4981 31.3379H31.802C31.802 31.792 31.7952 32.2935 31.7952 32.7747V35.7296L31.7884 35.7432ZM29.4183 35.1739C30.2536 35.1739 30.471 34.6046 30.471 33.7642C30.471 32.9238 30.3283 32.3477 29.4455 32.3477C28.8479 32.3477 28.3725 32.8086 28.3725 33.8116C28.3725 34.6724 28.8071 35.1739 29.4183 35.1739Z" fill="#2F4A3C"/>
<path d="M33.0176 31.3516H34.4098V36.3533H33.0176V31.3516ZM35.8427 29.2031L34.2943 30.6332H33.0855L34.1992 29.2031H35.8427Z" fill="#2F4A3C"/>
<path d="M39.7685 35.0579C39.7685 35.5391 39.8093 36.2371 39.8364 36.3524H38.5122C38.4714 36.2575 38.4443 35.9864 38.4443 35.8576C38.2609 36.1355 37.9213 36.4676 37.0317 36.4676C35.8229 36.4676 35.3203 35.6746 35.3203 34.902C35.3203 33.7634 36.2303 33.2347 37.6972 33.2347H38.4103V32.9365C38.4103 32.5773 38.2813 32.2317 37.6361 32.2317C37.0589 32.2317 36.923 32.4757 36.8619 32.8417H35.5444C35.6123 31.9538 36.1624 31.2422 37.6904 31.2422C39.0283 31.249 39.7617 31.7708 39.7617 32.9704V35.0647L39.7685 35.0579ZM38.4171 34.0684H37.8534C37.0113 34.0684 36.7057 34.3259 36.7057 34.8139C36.7057 35.1731 36.9298 35.4781 37.4324 35.4781C38.3152 35.4781 38.4171 34.8613 38.4171 34.2039V34.0684Z" fill="#2F4A3C"/>
<path d="M7.60566 44.398C7.76185 45.0622 8.23723 45.3604 9.01143 45.3604C9.78562 45.3604 10.1116 45.0487 10.1116 44.5675C10.1116 44.0185 9.79241 43.7881 8.65149 43.5237C6.83146 43.0968 6.39004 42.4326 6.39004 41.538C6.39004 40.379 7.25931 39.5996 8.83486 39.5996C10.6074 39.5996 11.3136 40.5484 11.4087 41.5176H9.9554C9.8807 41.1042 9.65659 40.6569 8.79411 40.6569C8.20328 40.6569 7.85693 40.9009 7.85693 41.3685C7.85693 41.8362 8.13537 42.0259 9.22195 42.2631C11.1574 42.724 11.5853 43.4424 11.5853 44.3845C11.5853 45.5909 10.6685 46.4312 8.90277 46.4312C7.13706 46.4312 6.30854 45.6044 6.15234 44.3845H7.60566V44.398Z" fill="#2F4A3C"/>
<path d="M17.3043 43.8359C17.3043 45.354 16.3943 46.4587 14.8119 46.4587C13.2296 46.4587 12.3535 45.3472 12.3535 43.863C12.3535 42.3787 13.2907 41.2266 14.8798 41.2266C16.3467 41.2266 17.3111 42.2703 17.3111 43.8359H17.3043ZM13.7525 43.8494C13.7525 44.8118 14.1668 45.3811 14.8391 45.3811C15.5114 45.3811 15.9053 44.8118 15.9053 43.8562C15.9053 42.8125 15.5182 42.3245 14.8187 42.3245C14.1803 42.3245 13.7525 42.7989 13.7525 43.8494Z" fill="#2F4A3C"/>
<path d="M18.248 46.3493V39.3008H19.6402V46.3493H18.248Z" fill="#2F4A3C"/>
<path d="M24.999 45.0559C24.999 45.5371 25.0397 46.2352 25.0669 46.3504H23.7426C23.7019 46.2555 23.6747 45.9844 23.6747 45.8557C23.4914 46.1335 23.1518 46.4656 22.2622 46.4656C21.0533 46.4656 20.5508 45.6727 20.5508 44.9C20.5508 43.7614 21.4608 43.2328 22.9277 43.2328H23.6408V42.9346C23.6408 42.5754 23.5117 42.2297 22.8666 42.2297C22.2893 42.2297 22.1535 42.4737 22.0924 42.8397H20.7749C20.8428 41.9519 21.3929 41.2402 22.9209 41.2402C24.2588 41.247 24.9922 41.7689 24.9922 42.9685V45.0627L24.999 45.0559ZM23.6476 44.0732H23.0839C22.2418 44.0732 21.9362 44.3307 21.9362 44.8187C21.9362 45.1779 22.1603 45.4829 22.6628 45.4829C23.5457 45.4829 23.6476 44.8662 23.6476 44.2087V44.0732Z" fill="#2F4A3C"/>
<path d="M26.247 42.7099C26.247 42.2084 26.247 41.7746 26.2402 41.3476H27.6053C27.6256 41.4629 27.646 41.9576 27.646 42.2287C27.8701 41.6594 28.3998 41.246 29.2487 41.2324V42.554C28.2436 42.5269 27.646 42.798 27.646 44.167V46.3494H26.2538V42.7099H26.247Z" fill="#2F4A3C"/>
<path d="M11.7897 54.3557C11.3075 55.6231 10.4383 56.4296 8.84912 56.4296C7.14453 56.4296 6.4043 55.2436 6.4043 53.7254C6.4043 51.7464 7.49768 49.5234 9.84063 49.5234C11.2804 49.5234 12.1496 50.3367 12.2107 51.6583H11.3415C11.2736 50.8247 10.7982 50.2283 9.75234 50.2283C8.13605 50.2283 7.30752 52.004 7.30752 53.7051C7.30752 54.8031 7.76253 55.7248 8.96457 55.7248C9.85421 55.7248 10.4858 55.2775 10.9068 54.3557H11.7965H11.7897Z" fill="#2F4A3C"/>
<path d="M16.3727 55.1266C16.2845 55.54 16.169 56.15 16.1418 56.3397H15.3609C15.3812 56.1568 15.4288 55.8585 15.4831 55.5874C15.2386 55.9805 14.8244 56.4346 13.8193 56.4346C12.8142 56.4346 12.4746 55.7908 12.4746 55.2011C12.4746 53.8118 13.7785 53.5 14.77 53.4051C15.2794 53.3645 15.7072 53.3645 15.9585 53.3577L16.0264 53.0324C16.1147 52.5715 16.0875 51.9683 15.1435 51.9683C14.3082 51.9683 14.0909 52.4021 13.9415 52.7816H13.1198C13.2963 52.0496 13.8328 51.3516 15.2115 51.3516C16.332 51.3516 17.0654 51.8666 16.8142 53.0324L16.3659 55.1266H16.3727ZM15.8294 53.9541C15.5714 53.9609 15.2386 53.9609 14.8244 54.0151C14.0298 54.0896 13.3235 54.3133 13.3235 55.0995C13.3235 55.4655 13.568 55.784 14.1045 55.784C15.1775 55.784 15.5918 54.9504 15.8091 54.0354L15.8294 53.9609V53.9541Z" fill="#2F4A3C"/>
<path d="M18.3562 52.6935C18.4445 52.2665 18.5192 51.8531 18.6007 51.4464H19.3817C19.3749 51.6023 19.2662 52.1513 19.2391 52.2801C19.5175 51.8328 19.9861 51.3516 20.8825 51.3516C21.779 51.3516 22.4038 51.8938 22.0982 53.2831L21.4598 56.3465H20.6584L21.2968 53.3035C21.4598 52.5715 21.29 52.0564 20.543 52.0564C19.633 52.0564 19.11 52.8968 18.8995 53.8931L18.3766 56.3465H17.582L18.3562 52.7003V52.6935Z" fill="#2F4A3C"/>
<path d="M26.7224 55.1266C26.6341 55.54 26.5186 56.15 26.4915 56.3397H25.7105C25.7308 56.1568 25.7784 55.8585 25.8327 55.5874C25.5882 55.9805 25.174 56.4346 24.1689 56.4346C23.1638 56.4346 22.8242 55.7908 22.8242 55.2011C22.8242 53.8118 24.1281 53.5 25.1196 53.4051C25.629 53.3645 26.0568 53.3645 26.3081 53.3577L26.376 53.0324C26.4643 52.5715 26.4371 51.9683 25.4931 51.9683C24.6578 51.9683 24.4405 52.4021 24.2911 52.7816H23.4694C23.646 52.0496 24.1825 51.3516 25.5611 51.3516C26.6816 51.3516 27.4151 51.8666 27.1638 53.0324L26.7156 55.1266H26.7224ZM26.1791 53.9541C25.921 53.9609 25.5882 53.9609 25.174 54.0151C24.3794 54.0896 23.6731 54.3133 23.6731 55.0995C23.6731 55.4655 23.9176 55.784 24.4541 55.784C25.5271 55.784 25.9414 54.9504 26.1587 54.0354L26.1791 53.9609V53.9541Z" fill="#2F4A3C"/>
<path d="M31.0837 52.1852C30.1465 52.253 29.447 52.9578 29.2161 54.0558L28.7203 56.3465H27.9258L28.6592 52.9036C28.7543 52.4224 28.863 51.9073 28.9377 51.4532H29.7119C29.7051 51.582 29.6236 52.07 29.5285 52.4834C29.8884 51.7853 30.5064 51.3516 31.2535 51.3516L31.0769 52.1852H31.0837Z" fill="#2F4A3C"/>
<path d="M32.2715 51.4537H33.0728L32.027 56.347H31.2324L32.2647 51.4537H32.2715ZM32.7401 49.2578H33.5414L33.3173 50.3083H32.516L32.7401 49.2578Z" fill="#2F4A3C"/>
<path d="M37.3708 55.1266C37.2825 55.54 37.1671 56.15 37.1399 56.3397H36.3589C36.3793 56.1568 36.4268 55.8585 36.4811 55.5874C36.2367 55.9805 35.8224 56.4346 34.8173 56.4346C33.8122 56.4346 33.4727 55.7908 33.4727 55.2011C33.4727 53.8118 34.7766 53.5 35.7681 53.4051C36.2774 53.3645 36.7053 53.3645 36.9565 53.3577L37.0244 53.0324C37.1127 52.5715 37.0856 51.9683 36.1416 51.9683C35.3063 51.9683 35.089 52.4021 34.9396 52.7816H34.1178C34.2944 52.0496 34.8309 51.3516 36.2095 51.3516C37.33 51.3516 38.0635 51.8666 37.8122 53.0324L37.364 55.1266H37.3708ZM36.8275 53.9541C36.5694 53.9609 36.2367 53.9609 35.8224 54.0151C35.0278 54.0896 34.3216 54.3133 34.3216 55.0995C34.3216 55.4655 34.566 55.784 35.1025 55.784C36.1755 55.784 36.5898 54.9504 36.8071 54.0354L36.8275 53.9609V53.9541Z" fill="#2F4A3C"/>
<path d="M39.1987 54.8758C39.2462 55.3773 39.5586 55.7908 40.3396 55.7908C40.9983 55.7908 41.3447 55.4655 41.3447 54.9978C41.3447 54.5302 41.0187 54.3201 40.3192 54.0693C39.2666 53.7033 38.9474 53.3373 38.9474 52.768C38.9474 52.0022 39.5247 51.3516 40.7199 51.3516C41.9899 51.3516 42.4584 52.0632 42.4449 52.7613H41.6299C41.6028 52.4224 41.4398 51.9886 40.6452 51.9886C40.1291 51.9886 39.7624 52.2394 39.7624 52.6867C39.7624 53.0256 40.0408 53.1882 40.7403 53.439C41.7657 53.805 42.18 54.2184 42.18 54.8962C42.18 55.8721 41.399 56.4414 40.2242 56.4414C38.9746 56.4414 38.377 55.7975 38.377 54.8758H39.1987Z" fill="#2F4A3C"/>
</svg>
