<?xml version="1.0" encoding="UTF-8"?>
<svg id="Capa_1" data-name="Capa 1" xmlns="http://www.w3.org/2000/svg" viewBox="14.74 10.67 82.46 93.33">
  <defs>
    <style>
      .cls-1 {
        fill: #e15025;
      }

      .cls-2 {
        fill: #fff;
      }
    </style>
  </defs>
  <rect class="cls-1" x="14.74" y="10.67" width="82.46" height="93.33"/>
  <g>
    <path class="cls-2" d="M31.27,60.07h-4.7v2.49h5.18l-.26,1.74h-6.99v-9.81h6.97v1.74h-4.9v2.09h4.7v1.75Z"/>
    <path class="cls-2" d="M33.01,58.79c0-.63,0-1.31-.01-1.87h1.98c.04.2.07.71.09.94.24-.46.84-1.11,2.14-1.11,1.48,0,2.44,1.01,2.44,2.86v4.69h-2.04v-4.46c0-.84-.27-1.44-1.18-1.44s-1.35.48-1.35,1.79v4.1h-2.05v-5.51Z"/>
    <path class="cls-2" d="M43.06,61.06c0,.93.47,1.82,1.48,1.82.85,0,1.1-.34,1.3-.78h2.04c-.26.9-1.07,2.38-3.38,2.38-2.44,0-3.49-1.81-3.49-3.75,0-2.32,1.18-3.97,3.56-3.97,2.52,0,3.39,1.84,3.39,3.67,0,.26,0,.41-.03.63h-4.87ZM45.91,59.8c-.01-.85-.36-1.58-1.35-1.58s-1.37.67-1.45,1.58h2.81Z"/>
    <path class="cls-2" d="M49.39,58.93c0-.74,0-1.38-.01-2.01h2.01c.03.17.06.9.06,1.3.33-.84,1.11-1.45,2.36-1.47v1.95c-1.48-.04-2.36.36-2.36,2.38v3.22h-2.05v-5.37Z"/>
    <path class="cls-2" d="M61.55,63.41c0,2.36-.87,3.86-3.66,3.86s-3.22-1.5-3.29-2.34h2.08c.14.51.51.85,1.3.85,1.32,0,1.58-.81,1.58-2.25v-.36c-.38.64-1,1.04-2.08,1.04-1.94,0-3.05-1.6-3.05-3.58,0-2.31,1.38-3.89,3.22-3.89,1.27,0,1.79.6,1.91.94.01-.2.07-.64.09-.77h1.92c0,.67-.01,1.41-.01,2.12v4.36ZM58.06,62.57c1.23,0,1.55-.84,1.55-2.08s-.21-2.09-1.51-2.09c-.88,0-1.58.68-1.58,2.16,0,1.27.64,2.01,1.54,2.01Z"/>
    <path class="cls-2" d="M63.36,56.93h2.05v7.38h-2.05v-7.38ZM67.52,53.76l-2.28,2.11h-1.78l1.64-2.11h2.42Z"/>
    <path class="cls-2" d="M73.3,62.4c0,.71.06,1.74.1,1.91h-1.95c-.06-.14-.1-.54-.1-.73-.27.41-.77.9-2.08.9-1.78,0-2.52-1.17-2.52-2.31,0-1.68,1.34-2.46,3.5-2.46h1.05v-.44c0-.53-.19-1.04-1.14-1.04-.85,0-1.05.36-1.14.9h-1.94c.1-1.31.91-2.36,3.16-2.36,1.97.01,3.05.78,3.05,2.55v3.09ZM71.31,60.94h-.83c-1.24,0-1.69.38-1.69,1.1,0,.53.33.98,1.07.98,1.3,0,1.45-.91,1.45-1.88v-.2Z"/>
    <path class="cls-2" d="M25.94,76.18c.23.98.93,1.42,2.07,1.42s1.62-.46,1.62-1.17c0-.81-.47-1.15-2.15-1.54-2.68-.63-3.33-1.61-3.33-2.93,0-1.71,1.28-2.86,3.6-2.86,2.61,0,3.65,1.4,3.79,2.83h-2.14c-.11-.61-.44-1.27-1.71-1.27-.87,0-1.38.36-1.38,1.05s.41.97,2.01,1.32c2.85.68,3.48,1.74,3.48,3.13,0,1.78-1.35,3.02-3.95,3.02s-3.82-1.22-4.05-3.02h2.14Z"/>
    <path class="cls-2" d="M40.22,75.35c0,2.24-1.34,3.87-3.67,3.87s-3.62-1.64-3.62-3.83,1.38-3.89,3.72-3.89c2.16,0,3.58,1.54,3.58,3.85ZM34.99,75.37c0,1.42.61,2.26,1.6,2.26s1.57-.84,1.57-2.25c0-1.54-.57-2.26-1.6-2.26-.94,0-1.57.7-1.57,2.25Z"/>
    <path class="cls-2" d="M41.61,79.06v-10.4h2.05v10.4h-2.05Z"/>
    <path class="cls-2" d="M51.55,77.15c0,.71.06,1.74.1,1.91h-1.95c-.06-.14-.1-.54-.1-.73-.27.41-.77.9-2.08.9-1.78,0-2.52-1.17-2.52-2.31,0-1.68,1.34-2.46,3.5-2.46h1.05v-.44c0-.53-.19-1.04-1.14-1.04-.85,0-1.05.36-1.14.9h-1.94c.1-1.31.91-2.36,3.16-2.36,1.97.01,3.05.78,3.05,2.55v3.09ZM49.56,75.7h-.83c-1.24,0-1.69.38-1.69,1.1,0,.53.33.98,1.07.98,1.3,0,1.45-.91,1.45-1.88v-.2Z"/>
    <path class="cls-2" d="M53.39,73.69c0-.74,0-1.38-.01-2.01h2.01c.03.17.06.9.06,1.3.33-.84,1.11-1.45,2.36-1.47v1.95c-1.48-.04-2.36.36-2.36,2.38v3.22h-2.05v-5.37Z"/>
    <path class="cls-2" d="M32.1,90.87c-.71,1.87-1.99,3.06-4.33,3.06-2.51,0-3.6-1.75-3.6-3.99,0-2.92,1.61-6.2,5.06-6.2,2.12,0,3.4,1.2,3.49,3.15h-1.28c-.1-1.23-.8-2.11-2.34-2.11-2.38,0-3.6,2.62-3.6,5.13,0,1.62.67,2.98,2.44,2.98,1.31,0,2.24-.66,2.86-2.02h1.31Z"/>
    <path class="cls-2" d="M38.85,92.01c-.13.61-.3,1.51-.34,1.79h-1.15c.03-.27.1-.71.18-1.11-.36.58-.97,1.25-2.45,1.25s-1.98-.95-1.98-1.82c0-2.05,1.92-2.51,3.38-2.65.75-.06,1.38-.06,1.75-.07l.1-.48c.13-.68.09-1.57-1.3-1.57-1.23,0-1.55.64-1.77,1.2h-1.21c.26-1.08,1.05-2.11,3.08-2.11,1.65,0,2.73.76,2.36,2.48l-.66,3.09ZM38.05,90.28c-.38.01-.87.01-1.48.09-1.17.11-2.21.44-2.21,1.6,0,.54.36,1.01,1.15,1.01,1.58,0,2.19-1.23,2.51-2.58l.03-.11Z"/>
    <path class="cls-2" d="M41.77,88.42c.13-.63.24-1.24.36-1.84h1.15c-.01.23-.17,1.04-.21,1.23.41-.66,1.1-1.37,2.42-1.37s2.24.8,1.79,2.85l-.94,4.52h-1.18l.94-4.49c.24-1.08-.01-1.84-1.11-1.84-1.34,0-2.11,1.24-2.42,2.71l-.77,3.62h-1.17l1.14-5.38Z"/>
    <path class="cls-2" d="M54.09,92.01c-.13.61-.3,1.51-.34,1.79h-1.15c.03-.27.1-.71.18-1.11-.36.58-.97,1.25-2.45,1.25s-1.98-.95-1.98-1.82c0-2.05,1.92-2.51,3.38-2.65.75-.06,1.38-.06,1.75-.07l.1-.48c.13-.68.09-1.57-1.3-1.57-1.23,0-1.55.64-1.77,1.2h-1.21c.26-1.08,1.05-2.11,3.08-2.11,1.65,0,2.73.76,2.36,2.48l-.66,3.09ZM53.29,90.28c-.38.01-.87.01-1.48.09-1.17.11-2.21.44-2.21,1.6,0,.54.36,1.01,1.15,1.01,1.58,0,2.19-1.23,2.51-2.58l.03-.11Z"/>
    <path class="cls-2" d="M60.51,87.67c-1.38.1-2.41,1.14-2.75,2.76l-.73,3.38h-1.17l1.08-5.08c.14-.71.3-1.47.41-2.14h1.14c-.01.19-.13.91-.27,1.52.53-1.03,1.44-1.67,2.54-1.67l-.26,1.23Z"/>
    <path class="cls-2" d="M62.26,86.59h1.18l-1.54,7.22h-1.17l1.52-7.22ZM62.95,83.35h1.18l-.33,1.55h-1.18l.33-1.55Z"/>
    <path class="cls-2" d="M69.77,92.01c-.13.61-.3,1.51-.34,1.79h-1.15c.03-.27.1-.71.18-1.11-.36.58-.97,1.25-2.45,1.25s-1.98-.95-1.98-1.82c0-2.05,1.92-2.51,3.38-2.65.75-.06,1.38-.06,1.75-.07l.1-.48c.13-.68.09-1.57-1.3-1.57-1.23,0-1.55.64-1.77,1.2h-1.21c.26-1.08,1.05-2.11,3.08-2.11,1.65,0,2.73.76,2.36,2.48l-.66,3.09ZM68.97,90.28c-.38.01-.87.01-1.48.09-1.17.11-2.21.44-2.21,1.6,0,.54.36,1.01,1.15,1.01,1.58,0,2.19-1.23,2.51-2.58l.03-.11Z"/>
    <path class="cls-2" d="M72.46,91.64c.07.74.53,1.35,1.68,1.35.97,0,1.48-.48,1.48-1.17s-.48-1-1.51-1.37c-1.55-.54-2.02-1.08-2.02-1.92,0-1.13.85-2.09,2.61-2.09,1.87,0,2.56,1.05,2.54,2.08h-1.2c-.04-.5-.28-1.14-1.45-1.14-.76,0-1.3.37-1.3,1.03,0,.5.41.74,1.44,1.11,1.51.54,2.12,1.15,2.12,2.15,0,1.44-1.15,2.28-2.88,2.28-1.84,0-2.72-.95-2.72-2.31h1.21Z"/>
  </g>
</svg>